:SAMPLES-PER-SECOND 30
:FULLY-SPECIFIED
:DEGREES
444
root  -14.4166 30.1108 -70.5303 16.8785 -52.8086 -4.6457
RightUpLeg  -49.9154 -16.3528 0.387112
RightLeg  46.4775 0.357345 0.294326
RightFoot  1.62607 0.00270139 0.18711
RightToes  -35.0552 -0.180235 -0.28552
Spine  9.00086 0.703066 5.13024
Spine1  17.424 1.23523 7.18815
HEad  9.88721 8.42321 -5.97103
LeftShoulder1  0 -2.42657e-020 -4.95415e-022
LeftArm  -23.7466 14.6696 -82.943
LeftForeArm  43.52 -74.4203 -39.5772
LeftHand  -0.064629 -0.280658 26.193
RightShoulder  0 2.42657e-020 1.07489e-018
RightArm  -41.9994 -2.43594 83.9364
RightForeArm  31.9595 78.6508 62.0224
RightHand  1.10226 17.1239 7.68443
LeftUpLeg  -6.19439 -13.9553 13.5236
LeftLeg  47.7414 2.56175 2.46975
LeftFoot  -1.03383 -0.00085506 -0.0947824
LeftToes  -41.3569 8.72033e-007 1.17809e-007
445
root  -16.6262 29.6728 -70.3706 18.6604 -54.4257 -6.68003
RightUpLeg  -50.248 -15.5438 3.14662
RightLeg  52.6047 0.510777 0.530987
RightFoot  -5.02582 -0.0143912 0.0496385
RightToes  -31.8913 -0.157159 -0.264894
Spine  9.24665 -0.566864 5.27705
Spine1  18.2607 -1.03748 6.73546
HEad  10.2797 9.07708 -6.07957
LeftShoulder1  0 -2.42657e-020 -4.95415e-022
LeftArm  -25.7542 23.1099 -84.4511
LeftForeArm  43.3227 -73.8606 -37.8645
LeftHand  -0.0898829 -0.393673 25.7931
RightShoulder  0 2.42657e-020 1.07489e-018
RightArm  -41.2941 -6.03013 79.7148
RightForeArm  48.7388 79.7809 79.7867
RightHand  0.908565 16.4227 6.66256
LeftUpLeg  -9.26059 -15.8113 12.2555
LeftLeg  59.4437 5.75597 8.37285
LeftFoot  4.40111 -0.0323099 0.840815
LeftToes  -14.7901 8.72033e-007 1.17809e-007
446
root  -18.7298 29.4825 -70.1571 22.0244 -59.3499 -10.5578
RightUpLeg  -48.5577 -10.3747 4.96629
RightLeg  55.3009 0.38601 0.422006
RightFoot  -9.59394 -0.0342173 -0.030193
RightToes  -30.7171 -0.14889 -0.256919
Spine  9.51119 -0.0513392 5.07414
Spine1  18.9816 0.277568 5.97265
HEad  12.6872 8.71799 -5.60828
LeftShoulder1  0 -2.42657e-020 -4.95415e-022
LeftArm  -26.5062 27.0776 -87.0215
LeftForeArm  32.9658 -69.7037 -28.662
LeftHand  -0.003237 -0.022543 22.9425
RightShoulder  0 2.42657e-020 1.07489e-018
RightArm  -42.2989 -7.95779 75.7997
RightForeArm  67.1807 79.8574 96.7603
RightHand  0.713999 16.3118 5.35099
LeftUpLeg  -12.0899 -13.7569 10.0761
LeftLeg  68.8928 2.67307 5.75135
LeftFoot  1.65287 -0.00424214 0.294073
LeftToes  -14.3672 8.72033e-007 1.17809e-007
447
root  -20.7152 29.6451 -69.8566 24.1228 -62.3955 -12.9903
RightUpLeg  -45.0075 -6.8072 5.71144
RightLeg  55.2572 0.200904 0.188115
RightFoot  -12.7216 -0.0454011 -0.029726
RightToes  -30.6497 -0.14842 -0.256456
Spine  9.82332 0.556139 4.96127
Spine1  19.672 1.6631 5.61155
HEad  14.6129 7.05601 -5.2373
LeftShoulder1  0 -2.42657e-020 -4.95415e-022
LeftArm  -26.0916 26.5526 -89.2499
LeftForeArm  23.8433 -61.845 -19.3177
LeftHand  0.0243774 0.136591 18.9236
RightShoulder  0 2.42657e-020 1.07489e-018
RightArm  -45.7365 -9.33115 74.5072
RightForeArm  100.173 77.9046 123.735
RightHand  0.130442 17.0509 1.24062
LeftUpLeg  -16.7516 -11.6132 7.98214
LeftLeg  75.7112 0.726267 2.2166
LeftFoot  -2.24291 0.000858845 0.0438641
LeftToes  -15.4769 8.72033e-007 1.17809e-007
448
root  -22.6178 30.219 -69.5424 25.2484 -62.1463 -13.5458
RightUpLeg  -40.085 -6.19615 6.66967
RightLeg  51.5435 -0.285461 -0.366716
RightFoot  -14.6804 -0.0330173 0.121241
RightToes  -29.3599 -0.139538 -0.247492
Spine  9.74434 0.397098 4.98432
Spine1  19.5732 1.45832 5.5421
HEad  17.0278 4.92084 -3.92185
LeftShoulder1  0 -2.42657e-020 -4.95415e-022
LeftArm  -27.5623 24.831 -91.6708
LeftForeArm  22.5021 -53.6033 -13.874
LeftHand  -0.0883905 -0.602695 16.5048
RightShoulder  0 2.42657e-020 1.07489e-018
RightArm  -48.902 -9.73013 76.1029
RightForeArm  128.352 74.2393 140.662
RightHand  -0.861752 18.4707 -4.92789
LeftUpLeg  -24.0459 -10.7186 7.2898
LeftLeg  79.2028 0.97052 3.72615
LeftFoot  -5.53848 -0.0111462 -0.230444
LeftToes  -13.1103 8.72033e-007 1.17809e-007
449
root  -24.4474 31.0091 -69.1061 23.3395 -60.9945 -10.3625
RightUpLeg  -34.5078 -5.57374 5.93858
RightLeg  45.7874 -1.90485 -1.75498
RightFoot  -15.3336 0.0408541 0.681067
RightToes  -28.1526 -0.131409 -0.238924
Spine  9.38402 -0.142213 4.42256
Spine1  18.7711 0.598652 4.37066
HEad  19.9115 2.28072 -2.08968
LeftShoulder1  0 -2.42657e-020 -4.95415e-022
LeftArm  -29.9752 23.8047 -93.2497
LeftForeArm  23.7453 -48.2693 -11.4204
LeftHand  -0.141497 -0.956306 16.5817
RightShoulder  0 2.42657e-020 1.07489e-018
RightArm  -48.3834 -9.56023 78.7451
RightForeArm  151.486 71.3116 147.967
RightHand  -2.431 20.0477 -13.3241
LeftUpLeg  -31.6951 -10.7304 5.6932
LeftLeg  77.8663 1.47118 5.15467
LeftFoot  -8.44692 -0.0476249 -0.644914
LeftToes  -9.71592 8.72033e-007 1.17809e-007
450
root  -26.2789 31.8555 -68.5445 19.502 -59.7905 -5.11377
RightUpLeg  -28.3078 -4.03687 4.01368
RightLeg  39.1082 -4.92356 -3.51322
RightFoot  -15.0775 0.157472 1.56748
RightToes  -26.0547 -0.117718 -0.223632
Spine  8.88173 -0.229047 3.2726
Spine1  17.5481 0.677913 2.37054
HEad  22.8684 -2.38422 1.04605
LeftShoulder1  0 -2.42657e-020 -4.95415e-022
LeftArm  -30.1716 23.104 -92.8057
LeftForeArm  24.3617 -45.6039 -10.3867
LeftHand  -0.135211 -0.970569 15.6019
RightShoulder  0 2.42657e-020 1.07489e-018
RightArm  -45.6015 -10.491 81.1938
RightForeArm  168.99 70.8211 148.949
RightHand  -4.15912 21.3903 -21.4019
LeftUpLeg  -37.8219 -11.9851 3.22624
LeftLeg  71.4374 1.79054 4.35176
LeftFoot  -9.93 -0.0584692 -0.673042
LeftToes  -9.3428 8.72033e-007 1.17809e-007
451
root  -28.1972 32.5784 -67.8574 15.3765 -58.9021 0.091004
RightUpLeg  -21.5518 -2.13266 2.04592
RightLeg  32.2683 -8.57576 -4.65346
RightFoot  -13.4466 0.223212 2.27096
RightToes  -25.7547 -0.115806 -0.221404
Spine  8.42057 0.135017 1.9422
Spine1  16.3846 1.57134 0.306099
HEad  26.0014 -8.28159 4.59334
LeftShoulder1  0 -2.42657e-020 -4.95415e-022
LeftArm  -27.721 22.7463 -91.1613
LeftForeArm  24.1217 -45.1118 -10.207
LeftHand  -0.151528 -1.17849 14.367
RightShoulder  0 2.42657e-020 1.07489e-018
RightArm  -40.6768 -10.5356 81.422
RightForeArm  165.41 76.3649 132.562
RightHand  -6.21249 21.8579 -31.0336
LeftUpLeg  -41.5189 -13.9458 0.910682
LeftLeg  60.7368 1.52622 2.3427
LeftFoot  -10.4564 -0.0358111 -0.391371
LeftToes  -9.50919 8.72033e-007 1.17809e-007
452
root  -30.1971 33.1102 -67.169 13.0855 -58.9941 2.75695
RightUpLeg  -15.4993 -0.751049 1.41334
RightLeg  26.9857 -10.8512 -4.63797
RightFoot  -10.0178 0.147613 2.06178
RightToes  -28.5015 -0.133739 -0.241417
Spine  8.01468 1.05697 0.973035
Spine1  15.444 3.44188 -0.904254
HEad  28.8278 -14.1547 7.73389
LeftShoulder1  0 -2.42657e-020 -4.95415e-022
LeftArm  -23.5385 22.0132 -89.458
LeftForeArm  24.5391 -44.8228 -10.103
LeftHand  -0.182913 -1.39696 14.6206
RightShoulder  0 2.42657e-020 1.07489e-018
RightArm  -36.8019 -6.97125 79.0644
RightForeArm  98.4876 76.6715 48.3954
RightHand  -7.885 20.8716 -40.6719
LeftUpLeg  -43.101 -15.3765 0.300667
LeftLeg  47.2867 1.03905 0.982691
LeftFoot  -10.1472 -0.0164813 -0.185645
LeftToes  -9.72249 8.72033e-007 1.17809e-007
453
root  -32.2476 33.3866 -66.476 12.5665 -60.4084 3.13052
RightUpLeg  -10.7618 0.20129 1.62872
RightLeg  24.0411 -10.8388 -3.99163
RightFoot  -6.47635 0.0525452 1.30641
RightToes  -32.6487 -0.162579 -0.269947
Spine  7.7284 2.5466 0.29321
Spine1  14.8269 6.51046 -1.66153
HEad  30.629 -19.3669 11.0414
LeftShoulder1  0 -2.42657e-020 -4.95415e-022
LeftArm  -19.405 20.7964 -88.136
LeftForeArm  26.6778 -44.6624 -10.0456
LeftHand  -0.303571 -2.24255 15.0928
RightShoulder  0 2.42657e-020 1.07489e-018
RightArm  -37.0491 1.65883 75.933
RightForeArm  72.7671 50.9305 12.4803
RightHand  -8.37727 21.9161 -41.0785
LeftUpLeg  -43.425 -15.6162 0.82442
LeftLeg  33.5232 1.70535 0.973817
LeftFoot  -8.60343 -0.0206884 -0.275045
LeftToes  -9.85736 8.72033e-007 1.17809e-007
454
root  -34.4595 33.0778 -65.785 12.1832 -61.9341 2.98109
RightUpLeg  -8.73701 4.07223 2.52405
RightLeg  28.2979 -12.1253 -5.49912
RightFoot  -5.84528 0.048938 1.33624
RightToes  -37.06 -0.195434 -0.297919
Spine  8.40722 4.78444 0.290467
Spine1  15.5111 12.6306 -3.50941
HEad  31.7683 -22.9857 13.9392
LeftShoulder1  0 -2.42657e-020 -4.95415e-022
LeftArm  -16.7635 19.0938 -87.3321
LeftForeArm  28.8942 -47.1339 -10.9664
LeftHand  -0.389185 -2.77708 15.6208
RightShoulder  0 2.42657e-020 1.07489e-018
RightArm  -42.2093 9.98591 71.9984
RightForeArm  69.6753 28.5658 5.43199
RightHand  -7.00939 23.8945 -31.9235
LeftUpLeg  -44.8807 -14.2207 0.354622
LeftLeg  27.2315 0.0360503 0.0123909
LeftFoot  -8.23887 -0.00193224 -0.0268376
LeftToes  -12.8614 8.72033e-007 1.17809e-007
455
root  -36.7015 32.52 -65.01 10.4804 -63.1431 3.28771
RightUpLeg  -8.02542 4.54791 2.98454
RightLeg  36.8192 -10.3135 -6.6784
RightFoot  -5.29657 0.0376229 1.19109
RightToes  -42.2974 -0.237091 -0.327729
Spine  8.99436 5.93271 0.244671
Spine1  16.0676 15.947 -4.58725
HEad  32.7404 -24.8411 14.9695
LeftShoulder1  0 -2.42657e-020 -4.95415e-022
LeftArm  -14.7754 18.5987 -86.6827
LeftForeArm  29.5703 -49.6447 -11.9984
LeftHand  -0.424414 -2.8347 16.6973
RightShoulder  0 2.42657e-020 1.07489e-018
RightArm  -57.6797 17.3836 68.6762
RightForeArm  65.903 15.2754 2.69811
RightHand  -1.66868 23.174 -7.75755
LeftUpLeg  -45.2009 -12.1373 -1.87081
LeftLeg  28.0275 -3.39024 -1.53617
LeftFoot  -8.91313 0.0426217 0.546847
LeftToes  -19.6874 8.72033e-007 1.17809e-007
456
root  -38.9346 31.7143 -64.0596 5.79659 -63.9955 5.8708
RightUpLeg  -8.67242 2.61847 1.33691
RightLeg  49.3329 -5.80638 -5.94941
RightFoot  -3.60911 0.0132091 0.79696
RightToes  -43.3203 -0.245536 -0.3331
Spine  9.28584 6.17056 -0.271543
Spine1  16.0975 16.6997 -5.62225
HEad  34.0202 -26.265 15.1296
LeftShoulder1  0 -2.42657e-020 -4.95415e-022
LeftArm  -13.3555 18.7489 -85.5346
LeftForeArm  30.6406 -51.4309 -12.8025
LeftHand  -0.462304 -3.01034 17.1268
RightShoulder  0 2.42657e-020 1.07489e-018
RightArm  -77.03 19.8777 64.262
RightForeArm  66.806 2.61591 0.409313
RightHand  0.50549 17.2945 3.69432
LeftUpLeg  -43.4587 -13.5019 -4.09048
LeftLeg  33.4705 -3.02597 -1.7351
LeftFoot  -7.73155 0.034991 0.517812
LeftToes  -13.7733 8.72033e-007 1.17809e-007
457
root  -41.1184 30.7468 -63.0967 1.71157 -64.2932 7.1772
RightUpLeg  -10.1905 1.081 -0.378277
RightLeg  63.3158 -1.50734 -2.67829
RightFoot  0.690426 -0.000484361 0.457476
RightToes  -36.246 -0.18921 -0.292949
Spine  9.34794 5.63131 -0.768244
Spine1  16.2526 15.0936 -5.79316
HEad  34.32 -26.6465 14.8437
LeftShoulder1  0 -2.42657e-020 -4.95415e-022
LeftArm  -11.6261 19.2028 -83.8022
LeftForeArm  31.3031 -53.5363 -13.8398
LeftHand  -0.480137 -3.13977 17.0518
RightShoulder  0 2.42657e-020 1.07489e-018
RightArm  -67.3772 18.5404 63.8132
RightForeArm  53.3405 -0.164267 -0.0484405
RightHand  0.45675 14.971 3.84677
LeftUpLeg  -43.0889 -16.2114 -5.10972
LeftLeg  43.947 -2.68344 -2.27698
LeftFoot  -1.56851 0.00478541 0.349578
LeftToes  -16.1562 8.72033e-007 1.17809e-007
